<svg id="图层_1" data-name="图层 1" xmlns="http://www.w3.org/2000/svg" viewBox="0 0 177.84 59.29"><defs><style>.cls-1{fill:#a4ce4e;}.cls-2{fill:#333640;}</style></defs><rect class="cls-1" width="177.84" height="59.29"/><path class="cls-2" d="M146,94.37a3.18,3.18,0,0,0-1.28-1.86,7.16,7.16,0,0,0-2.85-1.27,16.74,16.74,0,0,0-4-.43,16.39,16.39,0,0,0-4.12.45,7.24,7.24,0,0,0-2.79,1.29,3.23,3.23,0,0,0-1.24,1.87,22.35,22.35,0,0,0-.19,3.46v2.78a21.1,21.1,0,0,0,.2,3.52A3.28,3.28,0,0,0,131,106a7.33,7.33,0,0,0,2.84,1.28,17.42,17.42,0,0,0,4,.43,16.72,16.72,0,0,0,4.1-.46,7,7,0,0,0,2.79-1.29,3.21,3.21,0,0,0,1.23-1.87,19.75,19.75,0,0,0,.2-3.47V97.88a18.84,18.84,0,0,0-.21-3.51m-4.7,5.65a15.81,15.81,0,0,1-.07,1.85,1.82,1.82,0,0,1-.51,1,2.59,2.59,0,0,1-1.14.69,5,5,0,0,1-1.67.25,5.53,5.53,0,0,1-1.63-.23,2.83,2.83,0,0,1-1.16-.68,2.05,2.05,0,0,1-.51-1,13.79,13.79,0,0,1-.08-1.88V98.53a13.37,13.37,0,0,1,.08-1.85,1.71,1.71,0,0,1,.5-1A2.61,2.61,0,0,1,136.2,95a5.3,5.3,0,0,1,1.67-.24,5.14,5.14,0,0,1,1.63.23,2.71,2.71,0,0,1,1.17.68,2,2,0,0,1,.52,1,16,16,0,0,1,.07,1.87Z" transform="translate(-7.61 -69.71)"/><path class="cls-2" d="M82.28,94.37A3.16,3.16,0,0,0,81,92.51a7.21,7.21,0,0,0-2.86-1.27,16.74,16.74,0,0,0-4-.43,16.23,16.23,0,0,0-4.12.45,7.36,7.36,0,0,0-2.8,1.29A3.24,3.24,0,0,0,66,94.42a20.83,20.83,0,0,0-.2,3.46v2.78a19.76,19.76,0,0,0,.21,3.52A3.24,3.24,0,0,0,67.31,106a7.42,7.42,0,0,0,2.86,1.28,17.33,17.33,0,0,0,4,.43,16.52,16.52,0,0,0,4.09-.46,7.08,7.08,0,0,0,2.8-1.29,3.19,3.19,0,0,0,1.24-1.87,21.11,21.11,0,0,0,.19-3.47V97.88a19.78,19.78,0,0,0-.21-3.51M77.58,100a13,13,0,0,1-.09,1.85,1.74,1.74,0,0,1-.5,1,2.55,2.55,0,0,1-1.13.69,5,5,0,0,1-1.67.25,5.48,5.48,0,0,1-1.63-.23,2.63,2.63,0,0,1-1.14-.68,1.82,1.82,0,0,1-.54-1,16.31,16.31,0,0,1-.07-1.88V98.53c0-.87,0-1.49.06-1.85a2,2,0,0,1,.52-1A2.53,2.53,0,0,1,72.53,95a5.84,5.84,0,0,1,3.28,0,2.61,2.61,0,0,1,1.16.68,1.78,1.78,0,0,1,.52,1,13.09,13.09,0,0,1,.09,1.87Z" transform="translate(-7.61 -69.71)"/><path class="cls-2" d="M63.13,94.37a3.12,3.12,0,0,0-1.25-1.86A7.41,7.41,0,0,0,59,91.24a16.92,16.92,0,0,0-4-.43,16.22,16.22,0,0,0-4.1.45,7.17,7.17,0,0,0-2.79,1.29,3.19,3.19,0,0,0-1.24,1.87,18.8,18.8,0,0,0-.2,3.46v2.78a19.76,19.76,0,0,0,.21,3.52A3.24,3.24,0,0,0,48.17,106,7.37,7.37,0,0,0,51,107.32a17.52,17.52,0,0,0,4,.43,16.69,16.69,0,0,0,4.11-.46A7,7,0,0,0,61.92,106a3.17,3.17,0,0,0,1.23-1.87,19.48,19.48,0,0,0,.21-3.47V97.88a17.56,17.56,0,0,0-.23-3.51M58.43,100c0,.87,0,1.49-.06,1.85a1.76,1.76,0,0,1-.51,1,2.59,2.59,0,0,1-1.14.69,5,5,0,0,1-1.66.25,5.37,5.37,0,0,1-1.62-.23,2.65,2.65,0,0,1-1.16-.68,1.72,1.72,0,0,1-.52-1,13.35,13.35,0,0,1-.09-1.88V98.53a18.48,18.48,0,0,1,.07-1.85,2,2,0,0,1,.5-1A2.65,2.65,0,0,1,53.38,95a5.32,5.32,0,0,1,1.68-.24,5,5,0,0,1,1.61.23,2.51,2.51,0,0,1,1.16.68,1.81,1.81,0,0,1,.54,1c0,.36.06,1,.06,1.87Z" transform="translate(-7.61 -69.71)"/><polygon class="cls-2" points="141.03 37.78 145.8 37.78 145.8 28.8 151.96 37.78 156.75 37.78 156.75 21.41 151.96 21.41 151.96 30.47 145.78 21.41 141.03 21.41 141.03 37.78"/><rect class="cls-2" x="114.28" y="21.42" width="5.14" height="16.37"/><polygon class="cls-2" points="98.73 37.78 111.79 37.78 111.79 33.76 103.87 33.76 103.87 21.41 98.73 21.41 98.73 37.78"/><polygon class="cls-2" points="77.36 37.78 81.52 37.78 81.52 25.3 84.71 37.78 88.47 37.78 91.68 25.01 91.68 37.78 95.84 37.78 95.84 21.41 88.61 21.41 86.63 29.63 84.61 21.41 77.36 21.41 77.36 37.78"/><polygon class="cls-2" points="21.18 24.91 30.68 24.91 21.18 34.39 21.18 37.78 37 37.78 37 34.27 27.46 34.27 36.94 24.8 36.94 21.41 21.18 21.41 21.18 24.91"/></svg>